<?xml version="1.0" standalone="no"?>
<!DOCTYPE svg PUBLIC "-//W3C//DTD SVG 20010904//EN"
 "http://www.w3.org/TR/2001/REC-SVG-20010904/DTD/svg10.dtd">
<svg version="1.0" xmlns="http://www.w3.org/2000/svg"
 width="47.000000pt" height="40.000000pt" viewBox="0 0 47.000000 40.000000"
 preserveAspectRatio="xMidYMid meet">

<g transform="translate(0.000000,40.000000) scale(0.100000,-0.100000)"
fill="#000000" stroke="none">
<path d="M200 381 c-121 -39 -190 -123 -190 -228 0 -99 62 -147 190 -146 110
0 196 48 241 136 46 89 29 181 -40 221 -37 21 -157 32 -201 17z m90 -95 c0
-32 -37 -153 -59 -195 -14 -26 -51 -28 -51 -3 0 28 29 132 51 181 31 70 59 78
59 17z"/>
</g>
</svg>
